<svg xmlns="http://www.w3.org/2000/svg" width="200" height="200" viewBox="0 0 200 200" fill="none">
  <!-- Target icon with dotted and arc elements -->
  
  <!-- Outermost circle - dotted -->
  <circle cx="100" cy="100" r="90" fill="none" stroke="#000000" stroke-width="4" stroke-dasharray="8,4"/>
  
  <!-- Middle circle - partial arc with dotted segments -->
  <path d="M 160 100 A 60 60 0 1 1 40 100" fill="none" stroke="#000000" stroke-width="3" stroke-dasharray="6,3"/>
  <path d="M 40 100 A 60 60 0 1 1 160 100" fill="none" stroke="#000000" stroke-width="3"/>
  
  <!-- Inner circle - combination of solid and dotted arcs -->
  <path d="M 130 100 A 30 30 0 0 1 100 130" fill="none" stroke="#000000" stroke-width="2"/>
  <path d="M 100 130 A 30 30 0 0 1 70 100" fill="none" stroke="#000000" stroke-width="2" stroke-dasharray="4,2"/>
  <path d="M 70 100 A 30 30 0 0 1 100 70" fill="none" stroke="#000000" stroke-width="2"/>
  <path d="M 100 70 A 30 30 0 0 1 130 100" fill="none" stroke="#000000" stroke-width="2" stroke-dasharray="4,2"/>
  
  <!-- Center dot -->
  <circle cx="100" cy="100" r="8" fill="#000000"/>
</svg>