<svg xmlns="http://www.w3.org/2000/svg" width="200" height="200" viewBox="0 0 200 200" fill="none">
  <!-- Plan icon with timeline and milestones -->
  
  <!-- Main timeline horizontal line -->
  <line x1="30" y1="100" x2="170" y2="100" stroke="#000000" stroke-width="4"/>
  
  <!-- Week 1 milestone -->
  <circle cx="50" cy="100" r="8" fill="#000000"/>
  <line x1="50" y1="100" x2="50" y2="70" stroke="#000000" stroke-width="3" stroke-dasharray="4,2"/>
  <rect x="35" y="50" width="30" height="20" fill="none" stroke="#000000" stroke-width="2" rx="3"/>
  <text x="50" y="63" text-anchor="middle" font-family="Arial" font-size="10" fill="#000000">1</text>
  
  <!-- Week 2 milestone -->
  <circle cx="80" cy="100" r="8" fill="#000000"/>
  <line x1="80" y1="100" x2="80" y2="130" stroke="#000000" stroke-width="3"/>
  <rect x="65" y="130" width="30" height="20" fill="none" stroke="#000000" stroke-width="2" rx="3"/>
  <text x="80" y="143" text-anchor="middle" font-family="Arial" font-size="10" fill="#000000">2</text>
  
  <!-- Week 3 milestone -->
  <circle cx="120" cy="100" r="8" fill="#000000"/>
  <line x1="120" y1="100" x2="120" y2="70" stroke="#000000" stroke-width="3" stroke-dasharray="4,2"/>
  <rect x="105" y="50" width="30" height="20" fill="none" stroke="#000000" stroke-width="2" rx="3"/>
  <text x="120" y="63" text-anchor="middle" font-family="Arial" font-size="10" fill="#000000">3</text>
  
  <!-- Week 4 milestone -->
  <circle cx="150" cy="100" r="8" fill="#000000"/>
  <line x1="150" y1="100" x2="150" y2="130" stroke="#000000" stroke-width="3"/>
  <rect x="135" y="130" width="30" height="20" fill="none" stroke="#000000" stroke-width="2" rx="3"/>
  <text x="150" y="143" text-anchor="middle" font-family="Arial" font-size="10" fill="#000000">4</text>
  
  <!-- Arrow at end of timeline -->
  <path d="M 165 95 L 175 100 L 165 105" stroke="#000000" stroke-width="3" fill="none"/>
  
  <!-- Start point -->
  <circle cx="30" cy="100" r="6" fill="#000000"/>
  
  <!-- Additional visual elements - progress arcs -->
  <path d="M 45 95 A 5 5 0 0 1 55 95" fill="none" stroke="#000000" stroke-width="2" stroke-dasharray="3,2"/>
  <path d="M 75 105 A 5 5 0 0 1 85 105" fill="none" stroke="#000000" stroke-width="2" stroke-dasharray="3,2"/>
  <path d="M 115 95 A 5 5 0 0 1 125 95" fill="none" stroke="#000000" stroke-width="2" stroke-dasharray="3,2"/>
  <path d="M 145 105 A 5 5 0 0 1 155 105" fill="none" stroke="#000000" stroke-width="2" stroke-dasharray="3,2"/>
</svg>